<svg xmlns="http://www.w3.org/2000/svg" xmlns:xlink="http://www.w3.org/1999/xlink" width="500" zoomAndPan="magnify" viewBox="0 0 375 374.999991" height="500" preserveAspectRatio="xMidYMid meet" version="1.0"><defs><clipPath id="d97b6efb85"><path d="M 58.550781 41.519531 L 326.300781 41.519531 L 326.300781 307.019531 L 58.550781 307.019531 Z M 58.550781 41.519531 " clip-rule="nonzero"/></clipPath><clipPath id="8e4b8f9dd6"><path d="M 51.132812 89.332031 L 65.382812 89.332031 L 65.382812 152.332031 L 51.132812 152.332031 Z M 51.132812 89.332031 " clip-rule="nonzero"/></clipPath><clipPath id="aa154e52ba"><path d="M 51.132812 201.320312 L 65.382812 201.320312 L 65.382812 264.320312 L 51.132812 264.320312 Z M 51.132812 201.320312 " clip-rule="nonzero"/></clipPath><clipPath id="1927cc8995"><path d="M 93.429688 80.25 L 281.679688 80.25 L 281.679688 268.5 L 93.429688 268.5 Z M 93.429688 80.25 " clip-rule="nonzero"/></clipPath><clipPath id="757ca05b0e"><path d="M 81.378906 309.644531 L 131.628906 309.644531 L 131.628906 334.394531 L 81.378906 334.394531 Z M 81.378906 309.644531 " clip-rule="nonzero"/></clipPath><clipPath id="cec5144739"><path d="M 91.929688 311.144531 L 149.679688 311.144531 L 149.679688 335.894531 L 91.929688 335.894531 Z M 91.929688 311.144531 " clip-rule="nonzero"/></clipPath><clipPath id="2dc4ac46a8"><path d="M 224.089844 310.394531 L 274.339844 310.394531 L 274.339844 335.144531 L 224.089844 335.144531 Z M 224.089844 310.394531 " clip-rule="nonzero"/></clipPath><clipPath id="e2f6bd6d61"><path d="M 234.640625 311.894531 L 292.390625 311.894531 L 292.390625 336.644531 L 234.640625 336.644531 Z M 234.640625 311.894531 " clip-rule="nonzero"/></clipPath><clipPath id="3518e068a6"><path d="M 53.199219 37.535156 L 330.714844 37.535156 L 330.714844 315 L 53.199219 315 Z M 53.199219 37.535156 " clip-rule="nonzero"/></clipPath><clipPath id="7416c39885"><path d="M 44.25 83 L 72 83 L 72 157 L 44.25 157 Z M 44.25 83 " clip-rule="nonzero"/></clipPath><clipPath id="807cc74d1c"><path d="M 44.25 196 L 72 196 L 72 270 L 44.25 270 Z M 44.25 196 " clip-rule="nonzero"/></clipPath><clipPath id="6b4d2e9592"><path d="M 80.050781 305.242188 L 151.65625 305.242188 L 151.65625 337.496094 L 80.050781 337.496094 Z M 80.050781 305.242188 " clip-rule="nonzero"/></clipPath><clipPath id="df975d64a4"><path d="M 223.261719 305.242188 L 294.867188 305.242188 L 294.867188 337.496094 L 223.261719 337.496094 Z M 223.261719 305.242188 " clip-rule="nonzero"/></clipPath></defs><g clip-path="url(#d97b6efb85)"><path fill="#ffffff" d="M 75.820312 41.523438 L 309.027344 41.523438 C 313.605469 41.523438 318 43.339844 321.238281 46.570312 C 324.480469 49.804688 326.300781 54.191406 326.300781 58.765625 L 326.300781 289.773438 C 326.300781 294.347656 324.480469 298.730469 321.238281 301.964844 C 318 305.199219 313.605469 307.015625 309.027344 307.015625 L 75.820312 307.015625 C 71.242188 307.015625 66.847656 305.199219 63.609375 301.964844 C 60.367188 298.730469 58.550781 294.347656 58.550781 289.773438 L 58.550781 58.765625 C 58.550781 54.191406 60.367188 49.804688 63.609375 46.570312 C 66.847656 43.339844 71.242188 41.523438 75.820312 41.523438 " fill-opacity="1" fill-rule="nonzero"/></g><g clip-path="url(#8e4b8f9dd6)"><path fill="#ffffff" d="M 51.132812 89.339844 L 65.382812 89.339844 L 65.382812 152.324219 L 51.132812 152.324219 L 51.132812 89.339844 " fill-opacity="1" fill-rule="nonzero"/></g><g clip-path="url(#aa154e52ba)"><path fill="#ffffff" d="M 51.132812 201.328125 L 65.382812 201.328125 L 65.382812 264.3125 L 51.132812 264.3125 L 51.132812 201.328125 " fill-opacity="1" fill-rule="nonzero"/></g><g clip-path="url(#1927cc8995)"><path fill="#ffffff" d="M 93.429688 80.25 L 281.679688 80.25 L 281.679688 268.5 L 93.429688 268.5 L 93.429688 80.25 " fill-opacity="1" fill-rule="nonzero"/></g><g clip-path="url(#757ca05b0e)"><path fill="#ffffff" d="M 106.503906 334.394531 L 131.628906 309.644531 L 81.378906 309.644531 L 106.503906 334.394531 " fill-opacity="1" fill-rule="nonzero"/></g><g clip-path="url(#cec5144739)"><path fill="#ffffff" d="M 120.804688 335.894531 L 149.679688 311.144531 L 91.929688 311.144531 L 120.804688 335.894531 " fill-opacity="1" fill-rule="nonzero"/></g><g clip-path="url(#2dc4ac46a8)"><path fill="#ffffff" d="M 249.214844 335.144531 L 274.339844 310.394531 L 224.089844 310.394531 L 249.214844 335.144531 " fill-opacity="1" fill-rule="nonzero"/></g><g clip-path="url(#e2f6bd6d61)"><path fill="#ffffff" d="M 263.515625 336.644531 L 292.390625 311.894531 L 234.640625 311.894531 L 263.515625 336.644531 " fill-opacity="1" fill-rule="nonzero"/></g><path fill="#000000" d="M 192.019531 92.9375 C 215.9375 92.9375 237.617188 102.238281 253.339844 117.277344 C 269.109375 132.371094 278.867188 153.214844 278.867188 176.234375 C 278.867188 199.25 269.109375 220.097656 253.339844 235.1875 C 237.617188 250.226562 215.9375 259.53125 192.019531 259.53125 C 168.101562 259.53125 146.421875 250.226562 130.703125 235.1875 C 114.929688 220.097656 105.171875 199.25 105.171875 176.234375 C 105.171875 153.214844 114.929688 132.371094 130.703125 117.277344 C 146.421875 102.238281 168.101562 92.9375 192.019531 92.9375 Z M 246.894531 124.015625 C 232.875 110.605469 213.476562 102.3125 192.019531 102.3125 C 170.5625 102.3125 151.164062 110.605469 137.144531 124.015625 C 123.183594 137.375 114.546875 155.835938 114.546875 176.234375 C 114.546875 196.628906 123.183594 215.09375 137.144531 228.453125 C 151.164062 241.863281 170.5625 250.15625 192.019531 250.15625 C 213.476562 250.15625 232.875 241.863281 246.894531 228.453125 C 260.855469 215.09375 269.492188 196.628906 269.492188 176.234375 C 269.492188 155.835938 260.855469 137.375 246.894531 124.015625 " fill-opacity="1" fill-rule="nonzero"/><path fill="#000000" d="M 192.019531 131.761719 C 204.730469 131.761719 216.269531 136.722656 224.644531 144.734375 C 233.074219 152.796875 238.285156 163.9375 238.285156 176.234375 C 238.285156 188.53125 233.074219 199.667969 224.644531 207.730469 C 216.269531 215.746094 204.730469 220.703125 192.019531 220.703125 C 179.308594 220.703125 167.773438 215.746094 159.398438 207.730469 C 150.96875 199.667969 145.753906 188.53125 145.753906 176.234375 C 145.753906 163.9375 150.96875 152.796875 159.398438 144.734375 C 167.773438 136.722656 179.308594 131.761719 192.019531 131.761719 Z M 218.199219 151.472656 C 211.527344 145.085938 202.269531 141.136719 192.019531 141.136719 C 181.765625 141.136719 172.515625 145.085938 165.84375 151.472656 C 159.222656 157.804688 155.128906 166.5625 155.128906 176.234375 C 155.128906 185.910156 159.222656 194.664062 165.84375 200.996094 C 172.515625 207.382812 181.765625 211.328125 192.019531 211.328125 C 202.269531 211.328125 211.527344 207.382812 218.199219 200.996094 C 224.820312 194.664062 228.914062 185.910156 228.914062 176.234375 C 228.914062 166.5625 224.820312 157.804688 218.199219 151.472656 " fill-opacity="1" fill-rule="nonzero"/><g clip-path="url(#3518e068a6)"><path fill="#000000" d="M 73.964844 37.535156 L 310.074219 37.535156 C 315.757812 37.535156 320.921875 39.855469 324.65625 43.59375 C 328.394531 47.335938 330.714844 52.5 330.714844 58.179688 L 330.714844 294.289062 C 330.714844 299.972656 328.394531 305.132812 324.65625 308.871094 C 320.921875 312.613281 315.757812 314.933594 310.074219 314.933594 L 73.964844 314.933594 C 68.28125 314.933594 63.121094 312.613281 59.382812 308.871094 C 55.644531 305.132812 53.324219 299.972656 53.324219 294.289062 L 53.324219 259.941406 L 62.394531 259.941406 L 62.394531 205.5 L 53.324219 205.5 L 53.324219 146.96875 L 62.394531 146.96875 L 62.394531 92.527344 L 53.324219 92.527344 L 53.324219 58.179688 C 53.324219 52.5 55.644531 47.335938 59.382812 43.59375 C 63.121094 39.855469 68.28125 37.535156 73.964844 37.535156 Z M 310.074219 46.910156 L 73.964844 46.910156 C 70.871094 46.910156 68.054688 48.179688 66.011719 50.226562 C 63.964844 52.269531 62.699219 55.085938 62.699219 58.179688 L 62.699219 83.15625 L 65.183594 83.15625 C 66.984375 83.15625 68.628906 83.894531 69.820312 85.085938 L 69.839844 85.101562 C 71.03125 86.292969 71.769531 87.9375 71.769531 89.742188 L 71.769531 149.753906 C 71.769531 151.550781 71.03125 153.191406 69.839844 154.394531 L 69.832031 154.398438 L 69.820312 154.414062 C 68.621094 155.605469 66.976562 156.34375 65.183594 156.34375 L 62.699219 156.34375 L 62.699219 196.128906 L 65.183594 196.128906 C 66.984375 196.128906 68.628906 196.863281 69.820312 198.054688 L 69.839844 198.074219 C 71.03125 199.265625 71.769531 200.90625 71.769531 202.710938 L 71.769531 262.726562 C 71.769531 264.519531 71.03125 266.164062 69.839844 267.363281 L 69.820312 267.382812 C 68.621094 268.574219 66.976562 269.316406 65.183594 269.316406 L 62.699219 269.316406 L 62.699219 294.289062 C 62.699219 297.382812 63.964844 300.199219 66.011719 302.242188 C 68.054688 304.289062 70.871094 305.558594 73.964844 305.558594 L 310.074219 305.558594 C 313.167969 305.558594 315.984375 304.289062 318.03125 302.242188 C 320.074219 300.199219 321.34375 297.382812 321.34375 294.289062 L 321.34375 58.179688 C 321.34375 55.085938 320.074219 52.269531 318.03125 50.226562 C 315.984375 48.179688 313.167969 46.910156 310.074219 46.910156 " fill-opacity="1" fill-rule="nonzero"/></g><g clip-path="url(#7416c39885)"><path fill="#000000" d="M 50.835938 83.15625 L 65.183594 83.15625 C 66.984375 83.15625 68.628906 83.894531 69.820312 85.085938 L 69.839844 85.101562 C 71.03125 86.292969 71.769531 87.9375 71.769531 89.742188 L 71.769531 149.753906 C 71.769531 151.570312 71.03125 153.222656 69.839844 154.414062 L 69.832031 154.398438 C 68.628906 155.597656 66.984375 156.34375 65.183594 156.34375 L 50.835938 156.34375 C 49.035156 156.34375 47.394531 155.597656 46.191406 154.398438 L 46.183594 154.414062 C 44.992188 153.222656 44.25 151.570312 44.25 149.753906 L 44.25 89.742188 C 44.25 87.9375 44.992188 86.292969 46.183594 85.101562 L 46.199219 85.085938 C 47.390625 83.894531 49.035156 83.15625 50.835938 83.15625 Z M 62.394531 92.527344 L 53.625 92.527344 L 53.625 146.96875 L 62.394531 146.96875 L 62.394531 92.527344 " fill-opacity="1" fill-rule="nonzero"/></g><g clip-path="url(#807cc74d1c)"><path fill="#000000" d="M 50.835938 196.128906 L 65.183594 196.128906 C 66.984375 196.128906 68.628906 196.863281 69.820312 198.054688 L 69.839844 198.074219 C 71.03125 199.265625 71.769531 200.90625 71.769531 202.710938 L 71.769531 262.726562 C 71.769531 264.542969 71.03125 266.191406 69.839844 267.382812 L 69.832031 267.371094 C 68.628906 268.570312 66.984375 269.316406 65.183594 269.316406 L 50.835938 269.316406 C 49.035156 269.316406 47.394531 268.570312 46.191406 267.371094 L 46.183594 267.382812 C 44.992188 266.191406 44.25 264.542969 44.25 262.726562 L 44.25 202.710938 C 44.25 200.90625 44.992188 199.265625 46.183594 198.074219 L 46.199219 198.054688 C 47.390625 196.863281 49.035156 196.128906 50.835938 196.128906 Z M 62.394531 205.5 L 53.625 205.5 L 53.625 259.941406 L 62.394531 259.941406 L 62.394531 205.5 " fill-opacity="1" fill-rule="nonzero"/></g><path fill="#000000" d="M 196.707031 97.621094 C 196.707031 95.035156 194.609375 92.9375 192.019531 92.9375 C 189.433594 92.9375 187.332031 95.035156 187.332031 97.621094 L 187.332031 117.308594 C 187.332031 119.894531 189.433594 121.992188 192.019531 121.992188 C 194.609375 121.992188 196.707031 119.894531 196.707031 117.308594 L 196.707031 97.621094 " fill-opacity="1" fill-rule="nonzero"/><path fill="#000000" d="M 235.371094 110.5 C 236.664062 108.265625 235.902344 105.402344 233.667969 104.109375 C 231.433594 102.816406 228.574219 103.578125 227.277344 105.8125 L 217.4375 122.855469 C 216.144531 125.089844 216.90625 127.953125 219.140625 129.25 C 221.375 130.542969 224.234375 129.78125 225.53125 127.546875 L 235.371094 110.5 " fill-opacity="1" fill-rule="nonzero"/><path fill="#000000" d="M 262.441406 140.972656 C 264.675781 139.679688 265.441406 136.820312 264.144531 134.585938 C 262.847656 132.351562 259.988281 131.589844 257.753906 132.882812 L 240.707031 142.726562 C 238.472656 144.019531 237.714844 146.878906 239.007812 149.113281 C 240.300781 151.347656 243.160156 152.113281 245.398438 150.816406 L 262.441406 140.972656 " fill-opacity="1" fill-rule="nonzero"/><path fill="#000000" d="M 270.628906 180.921875 C 273.21875 180.921875 275.320312 178.824219 275.320312 176.234375 C 275.320312 173.644531 273.21875 171.546875 270.628906 171.546875 L 250.945312 171.546875 C 248.359375 171.546875 246.261719 173.644531 246.261719 176.234375 C 246.261719 178.824219 248.359375 180.921875 250.945312 180.921875 L 270.628906 180.921875 " fill-opacity="1" fill-rule="nonzero"/><path fill="#000000" d="M 257.753906 219.585938 C 259.988281 220.878906 262.847656 220.117188 264.144531 217.882812 C 265.441406 215.648438 264.675781 212.789062 262.441406 211.492188 L 245.398438 201.652344 C 243.160156 200.359375 240.300781 201.121094 239.007812 203.355469 C 237.714844 205.589844 238.472656 208.449219 240.707031 209.742188 L 257.753906 219.585938 " fill-opacity="1" fill-rule="nonzero"/><path fill="#000000" d="M 227.277344 246.65625 C 228.574219 248.890625 231.433594 249.652344 233.667969 248.359375 C 235.902344 247.066406 236.664062 244.203125 235.371094 241.96875 L 225.527344 224.925781 C 224.234375 222.691406 221.375 221.925781 219.140625 223.21875 C 216.90625 224.515625 216.144531 227.375 217.4375 229.613281 L 227.277344 246.65625 " fill-opacity="1" fill-rule="nonzero"/><path fill="#000000" d="M 187.332031 254.847656 C 187.332031 257.433594 189.433594 259.53125 192.019531 259.53125 C 194.609375 259.53125 196.707031 257.433594 196.707031 254.847656 L 196.707031 235.160156 C 196.707031 232.574219 194.609375 230.472656 192.019531 230.472656 C 189.433594 230.472656 187.332031 232.574219 187.332031 235.160156 L 187.332031 254.847656 " fill-opacity="1" fill-rule="nonzero"/><path fill="#000000" d="M 148.667969 241.96875 C 147.371094 244.203125 148.136719 247.066406 150.371094 248.359375 C 152.605469 249.652344 155.46875 248.890625 156.761719 246.65625 L 166.601562 229.609375 C 167.894531 227.375 167.132812 224.515625 164.898438 223.21875 C 162.664062 221.925781 159.804688 222.691406 158.511719 224.925781 L 148.667969 241.96875 " fill-opacity="1" fill-rule="nonzero"/><path fill="#000000" d="M 121.597656 211.492188 C 119.363281 212.789062 118.601562 215.648438 119.894531 217.882812 C 121.1875 220.117188 124.046875 220.878906 126.285156 219.585938 L 143.328125 209.742188 C 145.5625 208.449219 146.328125 205.589844 145.03125 203.355469 C 143.738281 201.121094 140.878906 200.359375 138.644531 201.652344 L 121.597656 211.492188 " fill-opacity="1" fill-rule="nonzero"/><path fill="#000000" d="M 113.410156 171.546875 C 110.820312 171.546875 108.722656 173.644531 108.722656 176.234375 C 108.722656 178.824219 110.820312 180.921875 113.410156 180.921875 L 133.089844 180.921875 C 135.683594 180.921875 137.78125 178.824219 137.78125 176.234375 C 137.78125 173.644531 135.683594 171.546875 133.089844 171.546875 L 113.410156 171.546875 " fill-opacity="1" fill-rule="nonzero"/><path fill="#000000" d="M 126.285156 132.882812 C 124.050781 131.589844 121.1875 132.351562 119.894531 134.585938 C 118.601562 136.820312 119.363281 139.679688 121.597656 140.972656 L 138.644531 150.816406 C 140.878906 152.113281 143.738281 151.347656 145.03125 149.113281 C 146.328125 146.878906 145.5625 144.019531 143.328125 142.726562 L 126.285156 132.882812 " fill-opacity="1" fill-rule="nonzero"/><path fill="#000000" d="M 156.761719 105.8125 C 155.46875 103.578125 152.605469 102.816406 150.371094 104.109375 C 148.136719 105.402344 147.375 108.265625 148.667969 110.5 L 158.511719 127.546875 C 159.804688 129.78125 162.664062 130.542969 164.898438 129.25 C 167.132812 127.953125 167.894531 125.089844 166.601562 122.855469 L 156.761719 105.8125 " fill-opacity="1" fill-rule="nonzero"/><path fill="#000000" d="M 196.707031 136.964844 C 196.707031 134.378906 194.609375 132.28125 192.019531 132.28125 C 189.433594 132.28125 187.332031 134.378906 187.332031 136.964844 L 187.332031 146.796875 C 187.332031 149.386719 189.433594 151.484375 192.019531 151.484375 C 194.609375 151.484375 196.707031 149.386719 196.707031 146.796875 L 196.707031 136.964844 " fill-opacity="1" fill-rule="nonzero"/><path fill="#000000" d="M 215.699219 144.554688 C 216.984375 142.320312 216.214844 139.464844 213.980469 138.179688 C 211.746094 136.894531 208.890625 137.667969 207.609375 139.902344 L 202.691406 148.417969 C 201.40625 150.652344 202.179688 153.503906 204.414062 154.789062 C 206.648438 156.070312 209.5 155.300781 210.78125 153.066406 L 215.699219 144.554688 " fill-opacity="1" fill-rule="nonzero"/><path fill="#000000" d="M 228.351562 160.644531 C 230.589844 159.363281 231.355469 156.511719 230.074219 154.277344 C 228.789062 152.042969 225.933594 151.269531 223.699219 152.554688 L 215.183594 157.46875 C 212.949219 158.753906 212.179688 161.609375 213.464844 163.84375 C 214.75 166.078125 217.605469 166.847656 219.835938 165.5625 L 228.351562 160.644531 " fill-opacity="1" fill-rule="nonzero"/><path fill="#000000" d="M 231.289062 180.921875 C 233.875 180.921875 235.972656 178.824219 235.972656 176.234375 C 235.972656 173.644531 233.875 171.546875 231.289062 171.546875 L 221.453125 171.546875 C 218.867188 171.546875 216.769531 173.644531 216.769531 176.234375 C 216.769531 178.824219 218.867188 180.921875 221.453125 180.921875 L 231.289062 180.921875 " fill-opacity="1" fill-rule="nonzero"/><path fill="#000000" d="M 223.683594 199.914062 C 225.917969 201.210938 228.777344 200.445312 230.074219 198.210938 C 231.367188 195.976562 230.605469 193.113281 228.371094 191.820312 L 219.855469 186.90625 C 217.621094 185.613281 214.757812 186.371094 213.464844 188.605469 C 212.171875 190.839844 212.933594 193.703125 215.167969 195 L 223.683594 199.914062 " fill-opacity="1" fill-rule="nonzero"/><path fill="#000000" d="M 207.609375 212.585938 C 208.902344 214.816406 211.761719 215.578125 213.996094 214.285156 C 216.230469 212.992188 216.992188 210.132812 215.699219 207.898438 L 210.78125 199.382812 C 209.488281 197.148438 206.628906 196.382812 204.394531 197.679688 C 202.160156 198.976562 201.398438 201.835938 202.691406 204.070312 L 207.609375 212.585938 " fill-opacity="1" fill-rule="nonzero"/><path fill="#000000" d="M 187.332031 215.5 C 187.332031 218.089844 189.433594 220.1875 192.019531 220.1875 C 194.609375 220.1875 196.707031 218.089844 196.707031 215.5 L 196.707031 205.667969 C 196.707031 203.082031 194.609375 200.980469 192.019531 200.980469 C 189.433594 200.980469 187.332031 203.082031 187.332031 205.667969 L 187.332031 215.5 " fill-opacity="1" fill-rule="nonzero"/><path fill="#000000" d="M 168.339844 207.914062 C 167.058594 210.152344 167.824219 213 170.058594 214.285156 C 172.292969 215.570312 175.148438 214.800781 176.433594 212.566406 L 181.347656 204.050781 C 182.632812 201.816406 181.863281 198.960938 179.628906 197.679688 C 177.394531 196.398438 174.539062 197.167969 173.257812 199.402344 L 168.339844 207.914062 " fill-opacity="1" fill-rule="nonzero"/><path fill="#000000" d="M 155.671875 191.820312 C 153.4375 193.113281 152.675781 195.976562 153.96875 198.210938 C 155.261719 200.445312 158.121094 201.210938 160.355469 199.914062 L 168.871094 195 C 171.105469 193.703125 171.867188 190.839844 170.574219 188.605469 C 169.277344 186.371094 166.421875 185.613281 164.183594 186.90625 L 155.671875 191.820312 " fill-opacity="1" fill-rule="nonzero"/><path fill="#000000" d="M 152.753906 171.546875 C 150.164062 171.546875 148.066406 173.644531 148.066406 176.234375 C 148.066406 178.824219 150.164062 180.921875 152.753906 180.921875 L 162.585938 180.921875 C 165.171875 180.921875 167.273438 178.824219 167.273438 176.234375 C 167.273438 173.644531 165.171875 171.546875 162.585938 171.546875 L 152.753906 171.546875 " fill-opacity="1" fill-rule="nonzero"/><path fill="#000000" d="M 160.339844 152.554688 C 158.105469 151.269531 155.25 152.042969 153.96875 154.277344 C 152.683594 156.511719 153.457031 159.363281 155.6875 160.644531 L 164.203125 165.5625 C 166.4375 166.847656 169.292969 166.078125 170.574219 163.84375 C 171.859375 161.605469 171.085938 158.753906 168.851562 157.46875 L 160.339844 152.554688 " fill-opacity="1" fill-rule="nonzero"/><path fill="#000000" d="M 176.433594 139.902344 C 175.148438 137.667969 172.292969 136.894531 170.058594 138.179688 C 167.824219 139.464844 167.058594 142.320312 168.339844 144.554688 L 173.257812 153.066406 C 174.539062 155.300781 177.394531 156.070312 179.628906 154.789062 C 181.863281 153.503906 182.632812 150.652344 181.347656 148.417969 L 176.433594 139.902344 " fill-opacity="1" fill-rule="nonzero"/><g clip-path="url(#6b4d2e9592)"><path fill="#000000" d="M 85.195312 305.558594 L 146.601562 305.558594 C 149.191406 305.558594 151.289062 307.65625 151.289062 310.242188 C 151.289062 311.375 150.886719 312.414062 150.21875 313.226562 L 135.152344 335.425781 L 131.285156 332.808594 L 135.164062 335.441406 C 134.25 336.785156 132.765625 337.503906 131.257812 337.496094 L 100.496094 337.496094 C 98.726562 337.496094 97.183594 336.515625 96.386719 335.066406 L 81.320312 312.867188 L 81.304688 312.875 C 79.847656 310.734375 80.410156 307.820312 82.550781 306.367188 C 83.359375 305.816406 84.28125 305.550781 85.195312 305.558594 Z M 137.78125 314.933594 L 94.003906 314.933594 L 102.957031 328.121094 L 128.828125 328.121094 L 137.78125 314.933594 " fill-opacity="1" fill-rule="nonzero"/></g><g clip-path="url(#df975d64a4)"><path fill="#000000" d="M 228.378906 305.558594 L 289.785156 305.558594 C 292.375 305.558594 294.472656 307.65625 294.472656 310.242188 C 294.472656 311.375 294.070312 312.414062 293.402344 313.226562 L 278.335938 335.425781 L 274.46875 332.808594 L 278.347656 335.441406 C 277.4375 336.785156 275.953125 337.503906 274.4375 337.496094 L 243.679688 337.496094 C 241.910156 337.496094 240.367188 336.515625 239.570312 335.066406 L 224.5 312.867188 L 224.484375 312.875 C 223.03125 310.734375 223.589844 307.820312 225.730469 306.367188 C 226.546875 305.816406 227.464844 305.550781 228.378906 305.558594 Z M 280.964844 314.933594 L 237.1875 314.933594 L 246.136719 328.121094 L 272.011719 328.121094 L 280.964844 314.933594 " fill-opacity="1" fill-rule="nonzero"/></g></svg>