<svg id="Layer_1" data-name="Layer 1" xmlns="http://www.w3.org/2000/svg" viewBox="0 0 122.33 150.76"><defs><style>.cls-1{fill:#fff;stroke:#fff;stroke-linecap:round;stroke-linejoin:round;stroke-width:.09px}</style></defs><title>RH_G_HiRes-RGB-W</title><path class="cls-1" d="M16.23 4.47v73.88H4l12.2 31.87v44.91h36.18v-43.64c2.22-1.9 8.08-2.38 12.21 4.19 4.6 6.74 16.58 34.88 18.39 39.41h43.29S90.62 94.9 84.72 87.87c-7.45-8.88-18.55-9.2-31.24-9.35v-74H16.23z" transform="translate(-3.98 -4.42)"/><path class="cls-1" d="M57.77 4.47v34.41s20.93-2.06 24.57 14.59c3 13.6-7.77 22.67-7.77 22.67a25.91 25.91 0 0 1 14.28 9.51C94.72 93.39 99 101.83 99 101.51c10-5.23 24.84-30.34 18.71-55.81C107.65 4.38 72.83 4.47 57.77 4.47z" transform="translate(-3.98 -4.42)"/></svg>